<svg width="109" height="60" viewBox="0 0 109 60" fill="none" xmlns="http://www.w3.org/2000/svg">
<path fill-rule="evenodd" clip-rule="evenodd" d="M54.2 41.4815H23.8C22.5408 41.4815 21.52 42.4764 21.52 43.7037V56.2963C21.52 57.5236 22.5408 58.5185 23.8 58.5185H54.2C55.4592 58.5185 56.48 57.5236 56.48 56.2963V43.7037C56.48 42.4764 55.4592 41.4815 54.2 41.4815ZM23.8 40C21.7013 40 20 41.6582 20 43.7037V56.2963C20 58.3418 21.7013 60 23.8 60H54.2C56.2987 60 58 58.3418 58 56.2963V43.7037C58 41.6582 56.2987 40 54.2 40H23.8Z" fill="#333333"/>
<path d="M45.3124 51.0832C45.1619 51.1516 45.0525 51.2337 44.9704 51.3295C44.8883 51.4252 44.8473 51.521 44.8473 51.6167C44.8473 51.7535 44.8883 51.8493 44.9841 51.9177C45.0662 51.9861 45.203 52.0408 45.3945 52.0819L47.597 52.5743C48.2126 52.7111 48.6777 52.93 48.9923 53.2173C49.307 53.5183 49.4711 53.9287 49.4711 54.4485C49.4711 55.1188 49.1702 55.6797 48.5682 56.1175C47.9663 56.5552 46.995 56.7741 45.6544 56.7741C44.943 56.7741 44.3138 56.692 43.7939 56.5279C43.2741 56.3637 42.8774 56.1311 42.6038 55.8439C42.3302 55.5566 42.207 55.2283 42.207 54.8726C42.207 54.4348 42.3849 54.0791 42.7406 53.7919C43.0962 53.5046 43.6161 53.3131 44.3001 53.2036C44.0675 53.0942 43.9034 52.9574 43.7939 52.7795C43.6845 52.6017 43.6298 52.4102 43.6298 52.205C43.6298 51.9177 43.7255 51.6578 43.9307 51.4389C44.1222 51.22 44.4369 51.0285 44.861 50.8917C44.5326 50.7412 44.259 50.5087 44.0675 50.194C43.876 49.8794 43.7802 49.5237 43.7802 49.1407C43.7802 48.5114 43.9307 47.9505 44.2317 47.458C44.5326 46.9655 44.9567 46.5962 45.4766 46.3226C45.9964 46.049 46.571 45.9122 47.2002 45.9122C47.5833 45.9122 47.939 45.9806 48.2673 46.09C48.5956 46.1995 48.8692 46.3636 49.1018 46.5688C49.5122 46.049 49.9499 45.7891 50.4424 45.7891C50.6886 45.7891 50.9075 45.8711 51.0854 46.0079C51.2495 46.1584 51.3453 46.3499 51.3453 46.5825C51.3453 46.7877 51.2906 46.9655 51.1948 47.116C51.0854 47.2802 50.9622 47.3759 50.8118 47.417H50.3603C50.3603 47.2255 50.3193 47.075 50.2646 46.9655C50.1962 46.8561 50.073 46.8014 49.9089 46.8014C49.649 46.8014 49.4574 46.8287 49.3343 46.8835C49.5258 47.1707 49.6353 47.5127 49.6353 47.9095C49.6353 48.5661 49.4711 49.1543 49.1702 49.6468C48.8555 50.1393 48.4314 50.5223 47.9116 50.7959C47.3781 51.0695 46.8035 51.1927 46.1742 51.1927C45.8596 51.1927 45.5723 51.1653 45.3124 51.0832ZM47.1592 50.1803C47.4054 49.9341 47.6106 49.5921 47.7474 49.1817C47.8842 48.7713 47.9663 48.3335 47.9663 47.8684C47.9663 47.458 47.8842 47.1434 47.7201 46.9108C47.5559 46.6919 47.3097 46.5688 47.0087 46.5688C46.7078 46.5688 46.4342 46.7056 46.1879 46.9519C45.9417 47.2118 45.7502 47.5538 45.6134 47.9642C45.4766 48.3746 45.4082 48.8123 45.4082 49.2775C45.4082 49.6879 45.4766 50.0162 45.6407 50.2351C45.7912 50.4539 46.0238 50.5634 46.3384 50.5634C46.6394 50.5634 46.913 50.4403 47.1592 50.1803ZM44.6831 53.4088C44.2727 53.5593 43.9854 53.7371 43.8213 53.9287C43.6434 54.1339 43.5614 54.3938 43.5614 54.7084C43.5614 55.1735 43.7529 55.5155 44.1633 55.7481C44.5737 55.9807 45.1209 56.0901 45.8322 56.0901C46.5573 56.0901 47.1045 55.9943 47.4875 55.7891C47.8569 55.5839 48.0484 55.2967 48.0484 54.9136C48.0484 54.6674 47.939 54.4622 47.7474 54.3254C47.5422 54.1886 47.2276 54.0655 46.8172 53.9423L44.6831 53.4088Z" fill="#333333"/>
<path d="M38.7125 51.2476C39.0819 50.2352 39.4649 49.305 39.8616 48.4295C40.2583 47.554 40.6277 46.9384 40.956 46.569C41.1475 46.3501 41.3527 46.186 41.5579 46.0765C41.7631 45.9671 41.9957 45.9124 42.2556 45.9124C42.5429 45.9124 42.7755 46.0081 42.9533 46.1723C43.1311 46.3501 43.2269 46.5964 43.2269 46.911C43.2269 47.3214 43.0354 47.6908 42.666 48.0054H42.0504C42.0231 47.6771 41.8589 47.4992 41.5853 47.4992C41.2023 47.4992 40.7508 48.0054 40.231 48.9904C39.7111 49.9753 39.1503 51.4391 38.5347 53.3543H36.9478L37.9327 47.8139C37.9601 47.595 37.9875 47.4308 37.9875 47.3077C37.9875 47.212 37.9601 47.1299 37.9191 47.0752C37.8643 47.0204 37.7823 46.9931 37.6728 46.9931C37.5087 46.9931 37.3445 47.0888 37.153 47.253C36.9615 47.4172 36.7563 47.6497 36.5374 47.9507L36.0723 47.595C36.7426 46.4732 37.5634 45.9124 38.5483 45.9124C38.9314 45.9124 39.2187 46.0081 39.3828 46.186C39.547 46.3775 39.6291 46.6374 39.6291 46.9657C39.6291 47.1983 39.5607 47.5676 39.4375 48.0738L38.6578 51.2476H38.7125Z" fill="#333333"/>
<path d="M29.2113 52.6976C28.7462 52.1778 28.5273 51.4801 28.5273 50.6183C28.5273 49.8112 28.6915 49.0451 29.0198 48.32C29.3481 47.6087 29.8133 47.0204 30.4152 46.5827C31.0171 46.1449 31.7011 45.9124 32.4945 45.9124C33.3564 45.9124 34.013 46.186 34.4781 46.7195C34.9433 47.253 35.1758 47.937 35.1758 48.7852C35.1758 49.606 35.0117 50.372 34.6833 51.0834C34.355 51.8084 33.8899 52.3967 33.288 52.8344C32.6861 53.2722 31.9884 53.4911 31.2086 53.4911C30.3331 53.4911 29.6628 53.2312 29.2113 52.6976ZM32.4672 52.1641C32.7818 51.74 33.0281 51.2065 33.2059 50.5499C33.3701 49.8932 33.4658 49.2503 33.4658 48.5936C33.4658 47.9507 33.3701 47.4582 33.2059 47.1299C33.0281 46.8016 32.7408 46.6237 32.3577 46.6237C31.92 46.6237 31.5506 46.8426 31.2223 47.2667C30.894 47.6908 30.6477 48.2243 30.4836 48.8672C30.3057 49.5239 30.2237 50.1668 30.2237 50.8098C30.2237 51.4664 30.3057 51.9726 30.4836 52.3009C30.6477 52.6292 30.935 52.7934 31.3454 52.7934C31.7695 52.7934 32.1389 52.5882 32.4672 52.1641Z" fill="#333333"/>
<path d="M24.9348 51.521C25.1536 51.3021 25.4272 51.179 25.7556 51.179C26.0702 51.179 26.3438 51.3021 26.5764 51.521C26.7952 51.7535 26.9184 52.0271 26.9184 52.3418C26.9184 52.6701 26.7952 52.9437 26.5764 53.1626C26.3438 53.3814 26.0702 53.4909 25.7556 53.4909C25.4272 53.4909 25.1536 53.3814 24.9348 53.1626C24.7159 52.9437 24.6064 52.6701 24.6064 52.3418C24.6064 52.0271 24.7159 51.7535 24.9348 51.521Z" fill="#333333"/>
<path d="M26.426 16H21.638V1.993H26.426C30.773 1.993 33.608 5.038 33.608 9.007C33.608 12.997 30.773 16 26.426 16ZM26.426 14.446C29.828 14.446 31.802 12.01 31.802 9.007C31.802 5.983 29.891 3.547 26.426 3.547H23.381V14.446H26.426ZM37.0561 4.408C36.4891 4.408 36.0061 3.946 36.0061 3.358C36.0061 2.77 36.4891 2.287 37.0561 2.287C37.6441 2.287 38.1271 2.77 38.1271 3.358C38.1271 3.946 37.6441 4.408 37.0561 4.408ZM37.8541 16H36.2791V5.857H37.8541V16ZM44.2089 16.252C42.5499 16.252 41.1429 15.748 40.1139 14.656L40.9329 13.522C41.6049 14.299 42.8859 14.971 44.2719 14.971C45.8259 14.971 46.6659 14.236 46.6659 13.228C46.6659 10.771 40.3869 12.283 40.3869 8.524C40.3869 6.949 41.7519 5.605 44.1669 5.605C45.8889 5.605 47.1069 6.256 47.9259 7.075L47.1909 8.167C46.5819 7.432 45.4689 6.886 44.1669 6.886C42.7809 6.886 41.9199 7.579 41.9199 8.482C41.9199 10.708 48.1989 9.238 48.1989 13.186C48.1989 14.887 46.8339 16.252 44.2089 16.252ZM55.2306 16.252C52.2066 16.252 50.1696 13.942 50.1696 10.918C50.1696 7.915 52.2066 5.605 55.2306 5.605C57.0786 5.605 58.1706 6.361 58.9476 7.369L57.8976 8.335C57.2256 7.411 56.3646 7.012 55.3146 7.012C53.1516 7.012 51.8076 8.671 51.8076 10.918C51.8076 13.165 53.1516 14.845 55.3146 14.845C56.3646 14.845 57.2256 14.425 57.8976 13.522L58.9476 14.488C58.1706 15.496 57.0786 16.252 55.2306 16.252ZM65.5861 16.252C62.4991 16.252 60.5671 13.858 60.5671 10.918C60.5671 7.978 62.4991 5.605 65.5861 5.605C68.6731 5.605 70.6051 7.978 70.6051 10.918C70.6051 13.858 68.6731 16.252 65.5861 16.252ZM65.5861 14.845C67.7491 14.845 68.9461 12.997 68.9461 10.918C68.9461 8.86 67.7491 7.012 65.5861 7.012C63.4231 7.012 62.2051 8.86 62.2051 10.918C62.2051 12.997 63.4231 14.845 65.5861 14.845ZM77.6037 16H75.8817L71.6607 5.857H73.3617L76.7427 14.173L80.1027 5.857H81.8247L77.6037 16ZM88.0456 16.252C85.0426 16.252 82.8796 14.089 82.8796 10.918C82.8796 7.978 84.9796 5.605 87.8776 5.605C90.9436 5.605 92.7496 7.999 92.7496 11.044V11.443H84.5386C84.6646 13.354 86.0086 14.95 88.1926 14.95C89.3476 14.95 90.5236 14.488 91.3216 13.669L92.0776 14.698C91.0696 15.706 89.7046 16.252 88.0456 16.252ZM91.1956 10.288C91.1746 8.776 90.1666 6.907 87.8566 6.907C85.6936 6.907 84.6226 8.734 84.5386 10.288H91.1956ZM96.8756 16H95.3006V5.857H96.8756V7.495C97.6946 6.424 98.8706 5.647 100.257 5.647V7.264C100.068 7.222 99.8786 7.201 99.6266 7.201C98.6606 7.201 97.3376 7.999 96.8756 8.818V16Z" fill="#333333"/>
<path d="M29.45 34H21.26V19.993H29.198C31.97 19.993 33.293 21.799 33.293 23.563C33.293 25.306 32.222 26.482 30.899 26.776C32.39 27.007 33.566 28.435 33.566 30.199C33.566 32.236 32.201 34 29.45 34ZM28.379 25.369C29.114 25.369 29.618 24.886 29.618 24.193C29.618 23.521 29.114 23.038 28.379 23.038H24.872V25.369H28.379ZM28.505 30.955C29.366 30.955 29.891 30.451 29.891 29.695C29.891 29.002 29.387 28.435 28.505 28.435H24.872V30.955H28.505ZM37.0664 22.954C36.0374 22.954 35.2184 22.114 35.2184 21.085C35.2184 20.056 36.0374 19.237 37.0664 19.237C38.0954 19.237 38.9144 20.056 38.9144 21.085C38.9144 22.114 38.0954 22.954 37.0664 22.954ZM38.6834 34H35.4494V23.857H38.6834V34ZM45.8786 34.252C42.4346 34.252 40.3556 31.774 40.3556 28.918C40.3556 26.062 42.4346 23.605 45.8786 23.605C49.3646 23.605 51.4226 26.062 51.4226 28.918C51.4226 31.774 49.3646 34.252 45.8786 34.252ZM45.8786 31.396C47.3066 31.396 48.1046 30.283 48.1046 28.918C48.1046 27.574 47.3066 26.461 45.8786 26.461C44.4716 26.461 43.6946 27.574 43.6946 28.918C43.6946 30.283 44.4716 31.396 45.8786 31.396ZM56.3612 34H53.1272V19.993H56.3612V34ZM63.5563 34.252C60.1123 34.252 58.0333 31.774 58.0333 28.918C58.0333 26.062 60.1123 23.605 63.5563 23.605C67.0423 23.605 69.1003 26.062 69.1003 28.918C69.1003 31.774 67.0423 34.252 63.5563 34.252ZM63.5563 31.396C64.9843 31.396 65.7823 30.283 65.7823 28.918C65.7823 27.574 64.9843 26.461 63.5563 26.461C62.1493 26.461 61.3723 27.574 61.3723 28.918C61.3723 30.283 62.1493 31.396 63.5563 31.396ZM75.0259 38.116C73.2829 38.116 71.8339 37.675 70.5319 36.604L71.9389 34.294C72.7159 35.134 73.8499 35.47 75.0259 35.47C76.0969 35.47 77.6089 35.029 77.6089 33.139V32.362C76.7689 33.349 75.7609 33.832 74.6059 33.832C72.1279 33.832 70.1329 32.131 70.1329 28.708C70.1329 25.369 72.0649 23.605 74.6059 23.605C75.7399 23.605 76.7899 24.046 77.6089 25.054V23.857H80.8219V33.097C80.8219 37.234 77.5459 38.116 75.0259 38.116ZM75.6769 30.976C76.3489 30.976 77.2099 30.619 77.6089 30.073V27.364C77.2099 26.818 76.3489 26.461 75.6769 26.461C74.3959 26.461 73.4509 27.238 73.4509 28.708C73.4509 30.199 74.3959 30.976 75.6769 30.976ZM84.8086 22.954C83.7796 22.954 82.9606 22.114 82.9606 21.085C82.9606 20.056 83.7796 19.237 84.8086 19.237C85.8376 19.237 86.6566 20.056 86.6566 21.085C86.6566 22.114 85.8376 22.954 84.8086 22.954ZM86.4256 34H83.1916V23.857H86.4256V34ZM93.6418 34.252C90.4708 34.252 88.0978 32.11 88.0978 28.918C88.0978 25.747 90.4708 23.605 93.6418 23.605C95.8258 23.605 97.1908 24.571 97.7998 25.474L95.6998 27.427C95.3008 26.839 94.6498 26.461 93.7888 26.461C92.4448 26.461 91.4158 27.385 91.4158 28.918C91.4158 30.451 92.4448 31.396 93.7888 31.396C94.6498 31.396 95.3008 30.976 95.6998 30.409L97.7998 32.383C97.1908 33.265 95.8258 34.252 93.6418 34.252ZM103.155 34.252C101.349 34.252 99.4797 33.643 98.4088 32.698L99.7528 30.472C100.509 31.144 102.126 31.816 103.323 31.816C104.289 31.816 104.688 31.501 104.688 31.039C104.688 29.716 98.7867 31.018 98.7867 26.944C98.7867 25.159 100.32 23.605 103.134 23.605C104.835 23.605 106.284 24.151 107.376 24.949L106.137 27.091C105.528 26.503 104.373 25.978 103.155 25.978C102.399 25.978 101.874 26.293 101.874 26.713C101.874 27.889 107.775 26.734 107.775 30.892C107.775 32.824 106.074 34.252 103.155 34.252Z" fill="white"/>
<line x1="9.5" y1="2" x2="9.5" y2="60" stroke="#333333" stroke-width="3"/>
<line x1="1.5" y1="2" x2="1.5" y2="34" stroke="#333333" stroke-width="3"/>
</svg>
